<svg width="25" height="20" viewBox="0 0 25 20" fill="none" xmlns="http://www.w3.org/2000/svg">
<path d="M23.2143 17.7273V6.81818C22.9167 7.15909 22.5958 7.47159 22.2517 7.75568C19.7591 9.70644 17.7781 11.3068 16.3086 12.5568C15.8343 12.964 15.4483 13.2812 15.1507 13.5085C14.8531 13.7358 14.4508 13.9654 13.9439 14.1974C13.437 14.4295 12.9604 14.5455 12.514 14.5455H12.486C12.0396 14.5455 11.563 14.4295 11.0561 14.1974C10.5492 13.9654 10.1469 13.7358 9.84933 13.5085C9.55171 13.2812 9.16574 12.964 8.69141 12.5568C7.22191 11.3068 5.24089 9.70644 2.74833 7.75568C2.4042 7.47159 2.08333 7.15909 1.78571 6.81818V17.7273C1.78571 17.8504 1.82989 17.9569 1.91825 18.0469C2.0066 18.1368 2.11124 18.1818 2.23214 18.1818H22.7679C22.8888 18.1818 22.9934 18.1368 23.0818 18.0469C23.1701 17.9569 23.2143 17.8504 23.2143 17.7273ZM23.2143 2.7983V2.45028L23.2073 2.26562L23.1655 2.08807L23.0887 1.96023L22.9632 1.85369L22.7679 1.81818H2.23214C2.11124 1.81818 2.0066 1.86316 1.91825 1.95312C1.82989 2.04309 1.78571 2.14962 1.78571 2.27273C1.78571 3.86364 2.46931 5.20833 3.8365 6.30682C5.63151 7.74621 7.49628 9.24716 9.4308 10.8097C9.48661 10.857 9.64937 10.9967 9.91908 11.2287C10.1888 11.4607 10.4027 11.6383 10.5608 11.7614C10.7189 11.8845 10.9259 12.0336 11.1816 12.2088C11.4374 12.384 11.6722 12.5142 11.8862 12.5994C12.1001 12.6847 12.3 12.7273 12.486 12.7273H12.514C12.7 12.7273 12.8999 12.6847 13.1138 12.5994C13.3278 12.5142 13.5626 12.384 13.8184 12.2088C14.0741 12.0336 14.2811 11.8845 14.4392 11.7614C14.5973 11.6383 14.8112 11.4607 15.0809 11.2287C15.3506 10.9967 15.5134 10.857 15.5692 10.8097C17.5037 9.24716 19.3685 7.74621 21.1635 6.30682C21.6657 5.89962 22.1331 5.35275 22.5656 4.66619C22.998 3.97964 23.2143 3.35701 23.2143 2.7983ZM25 2.27273V17.7273C25 18.3523 24.7814 18.8873 24.3443 19.3324C23.9072 19.7775 23.3817 20 22.7679 20H2.23214C1.6183 20 1.09282 19.7775 0.655692 19.3324C0.218564 18.8873 0 18.3523 0 17.7273V2.27273C0 1.64773 0.218564 1.11269 0.655692 0.667614C1.09282 0.222538 1.6183 0 2.23214 0H22.7679C23.3817 0 23.9072 0.222538 24.3443 0.667614C24.7814 1.11269 25 1.64773 25 2.27273Z" fill="black"/>
</svg>
